<svg xmlns="http://www.w3.org/2000/svg" width="33" height="32"><path fill="#fffffe" d="M31.938 15.968c0 3.333-1.02 6.426-2.767 8.986.468.004.972-.144 1.408-.227.538-.102.953-.218 1.411.216.41.465.418.985.366 1.561-.03.321-.168.733-.444.83-1.28.421-3.551.696-4.916.185a15.915 15.915 0 01-11.027 4.418c-3.224 0-6.161-.903-8.778-2.627-1.392.788-2.438.387-2.754.219-.47-.355-.703-.656-.795-1.244-.754-.66-.587-1.614-.204-2.418A15.898 15.898 0 010 15.968C0 7.148 7.149 0 15.969 0s15.97 7.149 15.97 15.968z"/><path fill="#121619" d="M16.928 12.414c-.028-.026-.242.077-.413.686-.193.69-.033.81.022.88.057.07.127.14.327-.616.184-.69.094-.925.064-.95zm2.925-6.912c-.07-.002.17-.024.428-.041.2-.01.38.006.575-.011.192-.017.4-.07.437-.07.135 0 .241.058.241.058s.191-.022.38-.007c.183.016.363.073.363.073s.08.05.152.122a3.1 3.1 0 01.218.242s.051.128.127.188c.102.077.036-.026.236.09.2.115.116.075.153.162.038.086-.009.537-.009.537s.037.488 0 .775c-.04.286-.02.295-.086.44a.474.474 0 00-.058.315c.009.135.04.26.04.26s.096.438.039.717c-.05.242-.26.325-.26.325l-.459.172-.551.143s-.314-.049-.459.03c-.142.077-.523.084-.523.084s-.142.087-.21 0a1.107 1.107 0 00-.351-.266c-.107-.04-.572.037-.572.037s-.253.01-.436-.096c-.159-.093-.213-.142-.25-.306-.038-.16-.096-.306-.135-.45-.038-.143-.133-.316-.142-.449-.01-.133-.01-.66-.01-.66s.062-.164.067-.335c.004-.154-.02-.23-.048-.316s-.058-.049-.047-.144c.013-.113.019-.076.095-.276.075-.201.02-.48.02-.48s-.137-.32.04-.562c.079-.107.238-.214.372-.278.416-.19.105-.034.623-.023zm3.599 1.38c.028-.049.094.02.114.143.019.124.01 1.56.01 1.56s-.102.274-.128.517c-.023.233.032.432.032.432s.103.247.062.46c-.034.17-.216.313-.216.313s-.066.128-.294.207c-.225.079-.613.11-.613.11s-.197.064-.45.12c-.18.036-.438.072-.438.072s-.017.079-.186.059c-.236-.027-.645-.155-.645-.155s-.155-.04-.316-.04c-.2 0-.42.04-.42.04s-.292-.046-.427-.186c-.15-.152-.144-.398-.144-.398s.148.132.322.168c.187.04.403-.014.403-.014s.296-.033.489.036c.174.064.208.201.245.231.04.028.14.015.306-.013.158-.026.403-.098.499-.117.095-.018.218.006.372-.022.152-.03.649-.09.993-.306.329-.205.323-.376.353-.537.027-.162-.094-.669-.094-.843-.002-.2.045-.124.082-.372.04-.25.059-1.416.088-1.465zm-11.356 9.55l.26.183.287.163s.164.057.315.086c.153.029.402.008.402.008s.067-.036.087-.019c.02.017.052.186.066.231.013.043.096.087.096.087s-.11.041-.162.065c-.055.027-.047.059-.095.038-.052-.019-.125.01-.174-.047-.12 0-.131-.04-.172-.068-.042-.028-.104-.022-.183-.046-.048-.066-.11-.078-.152-.106-.062-.032-.118-.043-.142-.096a1.2 1.2 0 01-.126-.096s-.023.273-.01.384c.011.11.006.093.038.2.034.108.013.044.03.162.015.12.013.094.047.192.034.1.075.13.067.2-.114.162-.223.318-.268.297-.045-.02-.077-.133-.058-.22.052-.13.026-.065 0-.247-.025-.182-.025-.147-.029-.24-.003-.095-.032-.113-.028-.192-.045-.098-.04-.205-.049-.297-.007-.09.008-.169.02-.182.012-.011.036.024.05-.008.011-.033-.014-.099-.02-.182-.008-.082-.097-.25-.097-.25zm6.214-7.004s.075.153.133.363c-.049.565-.814.42-.88.364a4.21 4.21 0 01-.468-.278c-.056-.037-.124.02-.285-.037-.163-.059-.374-.087-.49-.124a11.794 11.794 0 00-.563-.154c-.114-.028-.286-.096-.487-.105-.172-.078-.392.047-.478.037-.21.029-.315.038-.497 0-.18-.037-.563-.028-.63-.028-.24.164-.63.182-.737.22-.106.04-.26.325-.325.45-.066.124-.058.517-.067.727-.008.212-.047.182-.038.383.01.201.01.21.038.44.03.23.076.546.144.756.066.21.105.451.105.451s-.152-.26-.2-.45c-.05-.192-.02-.125-.115-.365-.037-.23-.068-.17-.096-.381.01-.22-.076-.25-.076-.441 0-.192-.029-.316 0-.547.028-.229.037-.353.065-.535.03-.18.049-.238.086-.402.04-.162.04-.266.145-.372.105-.107.105-.125.191-.163.086-.04.161-.04.266-.068.107.021.041 0 .164-.037.123-.04.125.019.219-.105.182.007 1.071.094 1.253.037.18-.058.124-.049.228-.105.136.038-.028-.01.222.056.25.068.238.096.353.106.114.01.077.03.22.048.143.02.134.059.257.077.124.019.115-.018.248.01.135.028.154.037.317.096.142.105.085.047.248.065.153.117.21.096.277.106.068.01.134.087.192.097.058.007.268.124.268.124s.123.077.18.077c.058 0 .268-.068.373-.126.144-.01.24-.267.24-.267zm1.882 1.672c.078.022.086.015.473.007.388-.007.646.13 1.22.216.575.087.417.588.502.847.086.257.2.186.432 1.22.229 1.033.07.789.028 2.081-.043 1.292-.56 1.65-.56 1.65s-.488.547-.516.761c-.167.138-1.682 1.685-1.848 1.75-.137.186-.407.447-.407.447s.15.184.406.4c.26.224.852.562 1.29.92.07.057.078.158.15.218.084.07.234.119.32.188.018.017.087.143.241.272.173.149.486.316.766.54.39.31.875.66 1.267.987.23.19.5.364.665.608.074.11.143.045.364.177.194.114.28.28.513.413.186.105.368.139.55.221.291.13.544.28.544.28s.547.26 1.092.33c.546.072.989.033 1.119-.048.298.113 1.825-.224 2.024-.252.2-.03.35-.144.576-.032.21.103.214.261.3.462.087.201.036.188.013.676-.008.104-.138.203-.232.365-.282.096-.7.148-1.1.23a8.656 8.656 0 01-1.035.076 10.867 10.867 0 01-1.206-.062 3.705 3.705 0 01-.94-.133c-.212-.063-.364-.196-.516-.263a1.505 1.505 0 00-.395-.113s-.152-.144-.36-.267c-.141-.08-.312-.118-.464-.225-.12-.085-.21-.205-.308-.289-.147-.13-.31-.26-.347-.252-.015.038-.145-.156-.5-.4a16.36 16.36 0 01-.732-.544c-.235-.18-.472-.434-.742-.645-.174-.133-.317-.257-.542-.362-.188-.086-.113-.137-.414-.323-.338-.18-.174-.281-.56-.475-.316-.222-.21-.011-.302-.306-.024-.075-.18-.011-.223-.06-.04-.047-.049-.111-.086-.158-.045-.056-.118-.096-.176-.137-.09-.066-.155-.161-.243-.225-.132-.096-.259-.076-.381-.164-.255-.186-.428-.402-.63-.56-.213-.166-.429-.27-.564-.358-.124-.079-.177-.15-.177-.15s-.561.345-1.034.345c-.378 0-.646-.23-.69-.345-.043-.114-.17-.214-.016-.424.446-.455.52-.64.52-.64s-.113-.134-.312-.292c-.1-.077-.23-.122-.357-.233-.129-.112-.313-.208-.384-.445-.03.017-.17-.04-.17-.04s-.088-.132-.1-.18c-.121-.086-.551-.457-.793-.583-.101-.427-.841-.608-1.187-.952-.229-.107-.329-.41-.486-.43-.158-.023-.473.1-.926-.105-.415-.19-.526-.305-.813-.686.073.06-.44-.515-.59-.715-.036-.13-.253-.545-.454-.782-.144-.28-.261-.599-.261-.599s-.321-.726-.494-.856c.05-.058.068-.18-.083-.31.014-.097-.005-.402-.107-.46.043-.067.023-.327-.099-.407-.064-.207-.057-.248-.107-.693a9.308 9.308 0 01-.084-1.166c.007-.107-.01-.179-.033-.316.117-.163.132-.514.132-.514s.006-.158.107-.329c.22-.223.295-.33.41-.533-.032-.126.182-.237.347-.28a.525.525 0 01.08-.037c.004-.005.033-.03.175-.128.323-.222 1.02-.194 1.435-.23.432-.264.625-.085.719-.13.092-.042.05.005.15-.074.122-.015.618.09 1.04.134.453.078 1.178.213 1.178.213s.082.029.077.107c.493.064.719.11.899.153.062.015.1.103.242.176.409.028.195-.011.46.11.229.025.45.142.6.213.151.071.407.205.407.205s.334.18.272.548c-.062.37-.51.449-.633.471-.236-.131-.526-.165-.712-.323-.315.008-.199-.037-.478-.094-.135-.092-.697-.253-.906-.21-.223-.093-.358-.084-.559-.148-.06-.026-.274-.07-.338.038-.984.035-1.025-.053-1.025-.053s-.26-.062-.618.175c-.224.101-.3-.002-.415.026-.28.094-.381 1.02-.46 1.205-.079.188.02 1.178.043 1.422.021.244.323 1.263.402 1.536.079.272.41 1.068.458 1.162.396.102.54.934.562 1.076.351.173.832.575.99.819.157.188.366.193.53.26.078.127.399.476.712.74.132.111.274.093.33.2.06.107.322.28.322.28s.004.1.047.142c.137-.013.14.015.212.087.032.216.777.858 1.022.85.107.043.148.156.202.22a.49.49 0 00.14.12s.181-.12.318-.234c.124-.179.573-.718.631-.768.059-.05.059-.012.124-.042.02-.011.251-.377.251-.377s.05-.132.192-.14c.096-.146.18-.3.346-.378.144-.151.133-.213.133-.213s.124-.516.389-.539c.221-.588.278-1.068.257-1.3-.036-.095-.115-.322 0-.473-.022-.319-.186-.715-.207-.816-.022-.1-.001-.18-.052-.432-.179-.389-.46-1.48-.474-1.722-.014-.244.237-.282.245-.396zm-8.06 9.66s-.068 1.011-.16 1.253c-.109.299-.092.408-.2.57-.109.161-.053.13-.237.304-.114.035-.137.218-.32.356a5.343 5.343 0 01-.23.293s-.074.092-.246.207c-.166.218-.11.19-.2.269-.091.08-.155.144-.305.253-.15.107-.173.08-.245.184-.076.103-.048.045-.162.17-.15.237-.31.294-.43.392-.136.16-.228.178-.32.258-.094.081-.033.087-.184.167-.15.081-.103.171-.258.202-.154.028-.23.136-.304.19-.074.01-.103.106-.137.176-.036.069-.086.093-.086.093s-.011-.007-.196.113c-.183.122-.247.14-.337.265-.092.126-.097.068-.202.23-.104.16-.109.15-.207.236-.08.005-.206.126-.195.223-.05.126-.091.195-.091.195s-.098-.202-.12-.298c-.023-.096-.034-.149 0-.235.211-.287.153-.248.264-.374.109-.125.142-.167.285-.292.144-.126.111-.098.259-.207.148-.109.184-.165.287-.218.103-.052.125-.047.155-.058.045-.137.058-.154.12-.24.064-.087.127-.14.287-.201.162-.064.293-.237.516-.42.333-.2.425-.294.557-.426.13-.13.217-.153.309-.253.092-.097.31-.302.401-.405.092-.104.225-.186.368-.368.142-.185.142-.173.275-.327.132-.156.349-.438.435-.535.085-.098.317-.209.527-.639.218-.439.327-1.102.327-1.102zm3.46-1.726s.16.189.216.345c.034.212.011.27-.006.477-.064.2-.033.452-.05.67-.017.22.005.254-.023.489-.034.328-.058.711-.03.798.03.086.034.116.058.178.023.064.07.12.07.12s-.075.053-.081.173c-.008.12-.028.206-.011.327.017.121.028.12.022.242-.005.12.012.212-.028.32-.086.11-.043.283-.15.476-.148.264-.318.287-.356.323-.033.036-.038.137-.079.195-.043.057-.058.098-.2.212-.145.115-.231.055-.426.27-.193.215-.27.253-.328.309-.056.058-.19.03-.26.174-.074.143-.13.194-.201.288-.073.092-.109.169-.315.32-.208.151-.183.142-.328.213-.146.171-.307.303-.414.417-.109.114-.27.256-.4.392-.129.138-.093.126-.258.299s-.338.362-.338.362-.48.032-.492.012c-.016-.023.227-.348.406-.563.178-.217.424-.466.424-.466s.225-.237.504-.488c.28-.252.25-.2.465-.408.215-.207.407-.366.407-.366s.27-.267.377-.396c.159-.072.232-.136.283-.179-.044-.101.033-.139.09-.19.172-.086.067-.022.339-.229.365-.208.538-.448.538-.448s.011-.152.069-.196c.058-.043.083.04.154-.052.032-.043.137-.132.195-.299.073-.204.084-.357.12-.466.037-.107-.02-.473-.032-.595a2.7 2.7 0 00-.07-.315s.075.035.075-.058c0-.092-.026-.483-.013-.74.016-.26.059-.52.059-.765 0-.244-.008-.356-.023-.55.073-.048.079-.293.028-.443-.048-.15.013-.19.013-.19zm7.577-5.845s.172.824.208 1.096c.035.272.028.911.028.911s.016.165.007.473c-.063.294-.057.53-.057.53s-.06.387-.154.737c-.186.381-.27.526-.27.526s-.416.53-.538.736c-.122.209-.014.115-.1.209-.026.026-.086.114-.15.114-.143.165-.252.279-.417.487-.244.223-.46.417-.61.59-.15.17-.703.65-.812.715-.173.02-.273-.164-.295-.2.079-.071.208-.272.317-.38.107-.108.466-.294.601-.516.246-.28.382-.366.57-.567.122-.131.402-.53.56-.587.058-.137.114-.187.114-.187l.46-.688s.324-.43.367-.616c.099-.187.099-.55.178-.753 0-.222.122-.859.072-1.212-.05-.35-.08-1.418-.08-1.418zm-4.834 7.86c.058-.03.132.007.228.074.105.075.194.162.173.213-.02.05-.231.157-.468.232-.211.068-.181.09-.432.055-.25-.036-.304.045-.513-.072-.192-.107-.293-.373-.293-.373s.452.127.799.092c.302-.03.45-.194.506-.222zm-9.79 7.982s.24.056.412.278c.615.086.71.131 1.012.124 1.129-.028 2.231-.252 2.784-.316.681-.013.617-.334.617-.334s.322.244.178.437c-.142.196-.82.3-1.563.395-.424.053-2.02.183-2.513.133a12.154 12.154 0 00-.363-.019s.064-.02-.028-.114c-.416-.094-.537-.584-.537-.584zm4.387-10.78c.277-.048.431 0 .68 0 .248 0 .314 0 .564-.057.249-.059.258-.105.363-.105.103 0 .173.056.297.124.123.067.21.037.315.163a.912.912 0 01.173.39c-.012.136-.02.155 0 .318.084.22-.012.306-.04.458.067.26.03.383.02.479-.097.24-.088.678-.078.928.011.25-.019.392-.019.575 0 .182-.066.107-.066.107s.048.121.048.315c0 .191.027.411.037.448.011.04-.057.528-.152.708-.096.18-.133.124-.238.192-.107.067-.117.038-.164.22s-.334.327-.439.432c-.105.105-.135.047-.287.182-.152.133-.23.112-.326.267-.094.153-.105.095-.2.182-.095.086-.23.161-.286.296-.058.135-.105.058-.278.26-.172.2-.211.21-.354.313-.145.107-.212.088-.306.193-.094.106-.086.085-.21.248-.125.164-.124.058-.268.25-.143.191-.18.143-.402.43-.22.287-.228.25-.373.44-.142.191-.16.086-.238.296-.077.212-.037.135-.056.306-.021.173-.03.089.075.182.039.155.163.05.478.05.315 0 .248-.029.593-.039.343-.009.448.02.562-.01.117-.03.106-.094.213-.087.219.04.324.117.469.317.124.402-.02.459-.145.536-.296.114-.554.096-.812.163-.259.068-.794.105-1.013.133-.222.028-.336.057-.509.047a5.4 5.4 0 00-.562.011c-.04.01-.115-.067-.115-.067s-.124.115-.287.105c-.163-.01 0 .019-.335-.01-.334-.028-.285-.009-.402-.095-.082-.062-.21-.09-.306-.154-.099-.068-.161-.175-.219-.282-.148-.28-.143-.665-.143-.665s.019-.277.047-.43c.028-.153.019-.153.068-.336.049-.182.114-.23.18-.43.124-.086.105-.105.154-.238.153-.068.296-.269.431-.383.133-.117.199-.164.266-.24.068-.078.068-.171.117-.21.046-.039.142-.078.248-.134.2-.087.286-.288.42-.451.132-.161.21-.096.307-.24.094-.143.124-.104.257-.18.152-.22 0-.087.192-.25.093-.081.38-.335.487-.487.152-.02.038-.02.173-.086.198-.163.131-.24.161-.364.173-.01.2-.047.364-.22.162-.173.201-.23.294-.479.096-.25.145-.66.145-.66s-.058-.345 0-.709c.058-.362.086-.554.086-.87 0-.317-.056-1.102-.038-1.293.02-.19-.037-.312.059-.514.096-.2.19-.241.323-.29zM4.299 28.37s.206.163.468.23c.262.068.657.025.872-.005.213-.028.142-.028.367-.08.224-.053.166-.034.342-.066.178-.034.225-.034.326-.087.099-.052.086-.297.086-.297s.122.098.135.295c.015.195.031.291.007.383-.142.115-.301.068-.324.13-.1.015-.17-.026-.231.026-.188-.01-.212.027-.274.055-.062.03-.258.03-.357.04-.102.009-.182-.005-.21.06-.108-.008-.387.016-.453-.014-.067-.028.032-.034-.11-.053-.144-.018-.167-.08-.277-.08-.234-.177-.148-.105-.252-.276a.739.739 0 01-.115-.261zm5.02-12.172c.07-.034.2-.154.272-.167.263.05.416.028.416.028s.107.105.245.101c.135-.004.285-.043.358-.071.073-.03.278-.002.402.015.163-.023.243.068.315.071.07.004.262-.071.287-.03.024.042.145.348.185.503.135.237.02.299.016.344.069.329.043.503.043.503s.107.378.103.558c-.049.209-.032.263-.004.305.03.039.054.037.058.07-.073.045-.065.094-.086.23.02.188.028.25.028.402 0 .049-.004.278.038.362-.08.193-.057.53-.057.53s-.02.355-.08.544c-.062.188-.064.447-.13.603-.025.098.01.045-.043.158-.146.212-.169.347-.26.488-.087.139-.23.398-.385.516-.186.278-.338.408-.473.56-.2.29-.298.34-.46.473a1.03 1.03 0 00-.302.306s-.167.252-.315.297c-.188.172-.376.272-.518.436-.3.27-.335.26-.43.334-.096.073-.202.124-.33.23-.125.108-.015.09-.112.134-.119.088-.224.062-.244.135-.118.013-.273.265-.284.36-.168.042-.36.189-.405.237-.047.05-.143.158-.192.175-.05.017-.072-.013-.108.03-.075.186-.341.366-.341.46a.54.54 0 00-.234.182.713.713 0 00-.129.302c.07.213.068.278.154.391.087.117.1.21.133.325.016.201.002.298-.03.332-.135.018-.128.053-.328.074-.2.02-.22.039-.445.056-.225.015-.27-.008-.46.013-.262.05-.183.057-.43.043-.245-.013-.157-.022-.314-.1-.214-.074-.212-.104-.388-.244-.177-.14-.164-.34-.239-.414-.052-.203-.14-.387-.092-.432.051-.047.053-.056.043-.102-.065-.028-.034-.09-.013-.142.126-.117.126-.299.201-.402.073-.103.268-.432.272-.519.004-.086.05-.135.1-.142.05-.008.094-.072.172-.13.08-.056.14-.07.2-.13.063-.056.06-.082.13-.185s.087-.117.115-.158c.03-.041.068-.096.103-.103.037-.01-.004-.01.098-.027a.247.247 0 00.186-.1s.02.012.058-.085c.037-.1.028-.15.086-.188.056-.036.116-.043.214-.1.186-.062.305-.225.431-.315.233-.137.424-.377.51-.468.087-.09.123-.195.158-.208.038-.012.062.005.107-.028.045-.034.096-.19.186-.258.09-.069.176-.079.259-.172a1.37 1.37 0 00.213-.36c.038-.102.076-.243.102-.243.024 0 .056.056.143 0 .086-.058.144-.152.199-.21.054-.057.163-.228.228-.282.066-.054.14-.267.29-.312.181-.152.086-.325.202-.287.131-.139.09-.015.2-.158.192-.186.189-.23.258-.374.07-.142.088-.255.101-.46.013-.204-.04-.627-.043-.745-.006-.12-.07-.147-.029-.33.085-.246.021-.209.074-.36-.004-.224-.054-.232-.074-.301a1.143 1.143 0 01-.014-.36.326.326 0 00-.011-.27c-.004-.156-.017-.292-.017-.375-.072-.131-.059-.453-.059-.501 0-.051-.005-.055.015-.087.019-.032.057-.028.057-.028s-.01-.032-.043-.188c-.032-.156-.043-.173-.014-.315a.345.345 0 01.201-.25zm10.178-3.24s.134.58.15 1.063c.012.314-.091.604-.091.604s-.064.318-.304.544c-.292.272-.386.302-.772.46-.389.158-1.348.475-1.348.475s-.064-.011-.118.023c-.054.037-.01.092-.096.12-.086.028-.474.13-.66.114-.185-.015-.817-.186-.901-.244-.086-.058-.286-.315-.258-.373.027-.057.37.129.558.157.188.03.873.087 1.018.016.143-.072 0-.115.429-.26.431-.142 1.39-.53 1.39-.53s.38-.178.625-.437c.21-.22.207-.338.292-.526.086-.186.086-1.205.086-1.205zm-1.312-1.161c.043-.038.201-.059.33-.123.09-.044.099-.094.123-.107.024-.013.129.085.142.143.016.064-.085.101-.085.101s-.033-.028-.07-.031c-.04-.004-.032.003-.086.017-.055.012-.393.037-.354 0zm.605 2.59s-.265.343-.537.415c-.273.071-1.676.536-1.732.635-.03.06-.337.33-1.263-.04-.462-.185-.734-.823-.734-.823s-.387-.581-.46-1.121c-.078-.574.16-1.107.16-1.107s.3-.615.685-.97c.376-.343.836-.426.836-.426l.674-.173s.004.056.143.053c.207-.004.575-.067.575-.067s.188-.073.315-.058c.157.021.26.13.26.13l.259-.086s.5.086.496.472c0 .179-.338.247-.338.247s-.468.163-.743.34a.45.45 0 00-.206.278l1.566.016.1-.074.344.232s.14.903.03 1.477c-.09.481-.43.65-.43.65z"/><path fill="#121619" d="M5.448 22.982c-.113.056-.703.383-.767.42l-.271.153c-.044.022-.658.378-.716.416l-.142-.25c.047-.02.566-.3.61-.325l.197-.11-.679-1.09-.201.114c-.042.024-.492.283-.545.318l-.143-.255c.064-.026.75-.394.81-.428l.251-.14c.032-.018.657-.376.703-.406l.141.25c-.09.039-.54.283-.59.31l-.26.146.679 1.089.16-.09c.113-.064.57-.33.626-.364zm-1.96-1.749c-.608.2-1.243-.067-1.46-.724-.17-.515.043-1.018.635-1.212.426-.138 1.164-.067 1.42.708.196.594-.113 1.07-.596 1.228zm-.725-1.674c-.49.159-.64.564-.522.922.163.488.65.659 1.12.505.408-.134.654-.511.512-.94-.134-.408-.569-.664-1.11-.487zm.66-2.453c.031.08.063.209.09.379.148.961-.397 1.29-.659 1.33-.466.07-1.128-.264-1.463-1.233l.234-.078c.173.634.647 1.109 1.137 1.034.347-.054.636-.375.53-1.05a1.493 1.493 0 00-.093-.32zm-.004-.435a28.233 28.233 0 00-.9-.014l-.306.003c-.25 0-.805.017-.87.017l-.003-.297c.047.002.592.013.843.011h.312c.222 0 .867-.011.922-.017zm-.02-1.32c-.043.03-.933.897-1.072 1.019-.046-.049-.86-.866-.936-.933l.188-.167c.104.11.574.627.727.779.11-.089.783-.777.888-.886zm.215-1.653c-.008.045-.155.898-.162.954-.15-.028-.762-.113-.828-.122l-.381-.053c-.047-.005-.736-.096-.792-.1.01-.069.071-.816.071-.908l.229.018c-.014.093-.07.605-.076.65l.726.102c.006-.053.044-.417.046-.56l.226.023c-.01.063-.083.505-.09.561l.697.096c.01-.068.07-.449.087-.684zm.221-1.014a14.434 14.434 0 00-.39-.126l-.21-.058c-.362-.102-.7-.015-.964.112a1.286 1.286 0 00-.426.32l-.184-.175c.142-.15.347-.289.449-.338.188-.088.452-.195.7-.191l.003-.006a1.546 1.546 0 01-.678-1.123l.24-.022c.004.19.076.422.212.628.163.248.425.462.72.545l.262.073c.04.011.289.074.346.083zM5.27 9.322a2.126 2.126 0 01-.158.355c-.462.861-1.092.8-1.325.676-.415-.22-.742-.881-.425-1.857l.235.077c-.243.611-.154 1.272.282 1.502.31.166.73.079 1.053-.525.055-.1.096-.215.122-.31zM4.066 7.53c.044.045.5.385.795.596l.663.47c.042-.054.24-.33.39-.56l.202.144c-.024.032-.545.708-.586.766-.111-.107-.613-.464-.67-.503l-.311-.224a37.058 37.058 0 00-.654-.45zm1.498-.807c.335.323.503.456.725.514a.55.55 0 00.551-.163.557.557 0 00.153-.548c-.058-.248-.31-.494-.636-.81l-.074-.07c-.144-.136-.273-.245-.354-.316l.191-.196.349.333.096.091c.4.384.631.65.672.99.03.267-.05.489-.263.706-.11.113-.346.321-.717.243-.25-.053-.447-.173-.952-.66l-.113-.106-.293-.288.193-.195c.05.056.14.156.33.338zM7.252 5.05a14.39 14.39 0 00-.391-.496c.123-.09.232-.167.332-.221.499-.309.698-.177.797-.05.065.089.139.282-.023.577l.004.004c.179-.092.48-.118.636.09.205.274.055.796-.503 1.211l-.017.015c-.086-.135-.61-.832-.641-.875zm.912.807c.236-.212.377-.501.213-.719-.123-.16-.4-.132-.682.098zm-.561-.763c.252-.192.307-.468.189-.62-.157-.204-.446-.042-.612.07zm3.401-2.8c-.028.176-.143 2.054-.154 2.277l-.006.004c-.092-.057-1.604-1.345-1.738-1.43l.17-.227a36.68 36.68 0 001.377 1.161 46.41 46.41 0 00.08-1.816zm1.006 1.539c.255-.135.562-.374.496-.597-.042-.137-.151-.182-.383-.233-.274-.056-.471-.126-.53-.32-.087-.292.245-.684.6-.882l.122.195c-.163.078-.534.33-.466.56.044.145.265.175.403.21.246.063.443.102.51.323.08.27-.124.65-.62.928zm2.496-.355c-.046.008-.91.123-.967.13-.015-.15-.118-.76-.129-.826l-.062-.38c-.01-.046-.127-.731-.14-.784.07-.011.805-.177.897-.203l.048.222c-.092.015-.603.115-.649.123l.12.72c.05-.007.414-.08.552-.123l.045.225c-.062.01-.508.072-.567.081l.115.694c.068-.01.452-.065.683-.12zm.972-.115c.011-.075-.012-.908-.024-1.362l-.014-.426c-.332.01-.74.037-.815.05l-.008-.242c.118.02.8.01.833.008l.249-.007c.056-.001.685-.032.81-.058l.007.241c-.04-.01-.574-.007-.817 0l.015.471c.019.58.068 1.258.075 1.315zm1.786-.813c-.022.288-.058.8-.059.866l-.284-.022c.015-.126.075-.794.08-.87l.026-.308c.005-.05.055-.757.055-.826l.292.025a18.1 18.1 0 00-.083.827zm.232-1.7l.122.21-.482.205-.067-.11zm.395 2.604c.063-.206.5-1.755.58-2.039h.007a201.47 201.47 0 001.162 1.929c.02-.079.338-1.386.363-1.478l.258.073c-.05.165-.366 1.293-.541 1.992l-.004-.002a122.122 122.122 0 01-1.182-1.943h-.005c-.023.097-.358 1.455-.378 1.547zm6.135 2.731c.092-.088.556-.575.609-.63l.212-.224c.034-.036.517-.558.56-.61l.21.195c-.04.033-.45.454-.487.491l-.152.164.972.84.158-.168c.034-.036.384-.417.424-.466l.213.202c-.053.044-.598.598-.645.647l-.198.209c-.026.028-.516.554-.55.597l-.209-.197c.074-.064.434-.43.47-.47l.205-.218-.97-.839-.129.133a50.58 50.58 0 00-.49.536zm2.39 1.084c.518-.37 1.199-.304 1.603.256.315.44.263.98-.24 1.338-.365.26-1.087.41-1.563-.25-.363-.507-.212-1.05.2-1.344zm1.196 1.385c.419-.3.44-.73.218-1.037-.3-.416-.815-.433-1.217-.147-.35.25-.472.68-.208 1.047.253.351.744.466 1.207.137zM22.076 3.69a.328.328 0 11.655 0 .327.327 0 11-.656 0zm5.64 7.499a2.227 2.227 0 01-.2-.336c-.432-.879-.013-1.358.225-1.474.424-.207 1.158-.083 1.769.747l-.198.145c-.359-.558-.953-.87-1.398-.652-.317.154-.49.547-.187 1.163.052.103.12.204.184.281zm.14.427c.08-.02.548-.158.861-.256l.293-.092c.237-.075.762-.253.826-.274l.085.274a41.58 41.58 0 00-.806.238l-.298.092a36.38 36.38 0 00-.875.292zm.409 1.242c.03-.04.624-1.13.72-1.29.06.032 1.09.573 1.18.614l-.132.216c-.133-.073-.738-.43-.932-.53-.078.12-.516.975-.586 1.11zm.282 1.64c-.008-.046-.12-.903-.129-.96.151-.017.76-.116.826-.126l.381-.064c.046-.007.73-.125.785-.136.01.067.175.8.202.89l-.223.046c-.015-.09-.113-.597-.12-.643l-.725.12c.01.05.083.41.123.546l-.223.045c-.009-.062-.071-.505-.08-.561l-.695.113c.012.067.064.448.121.677zm.095 1.027c.068.002.375.004.413.004l.216-.006c.377-.009.677-.193.89-.395.126-.118.245-.271.31-.429l.229.112c-.09.187-.246.38-.328.457-.153.139-.373.319-.612.389v.005c.243.077.413.182.593.333.146.121.33.364.393.54l-.224.092c-.06-.182-.2-.383-.392-.539a1.327 1.327 0 00-.851-.306l-.274.006c-.04.002-.297.016-.354.024zm-.376 3.63c-.001-.089.012-.22.044-.389.178-.963.8-1.095 1.058-1.046.464.086.973.622.966 1.65l-.245-.001c.047-.66-.24-1.266-.726-1.356-.344-.064-.719.146-.845.82a1.472 1.472 0 00-.02.335zm1.698 1.352c-.057-.03-.593-.218-.94-.33l-.775-.253c-.02.066-.126.387-.2.654l-.237-.077c.013-.037.306-.839.328-.909.138.07.724.261.79.282l.366.118c.044.015.705.226.758.237zm-1.193 1.219c-.414-.21-.613-.286-.84-.274a.535.535 0 00-.472.317.569.569 0 00.017.569c.132.219.443.379.845.581l.09.046c.177.09.334.156.432.199l-.124.242c-.056-.028-.227-.11-.428-.212l-.118-.06c-.494-.248-.793-.434-.933-.746-.107-.244-.098-.48.04-.753.068-.137.228-.407.604-.443.253-.023.474.034 1.098.347l.139.07.362.186-.122.244a6.626 6.626 0 00-.415-.226zm-1.115 2.105c.07.05.464.332.519.36-.09.123-.17.23-.247.312-.38.444-.61.378-.74.283-.087-.064-.213-.228-.15-.558l-.003-.004c-.143.142-.418.255-.627.102-.276-.202-.29-.75.113-1.312l.013-.02c.118.107.82.618.866.65zm-1.107-.502c-.16.27-.208.59.015.747.165.119.42.01.622-.293zm.758.55c-.178.261-.144.543.01.655.21.153.433-.088.555-.245zm-3.995 4.764c0-.178-.214-2.049-.238-2.27l.004-.002c.1.038 1.811 1.048 1.957 1.108l-.127.253a35.754 35.754 0 00-1.558-.907c-.002.083.213 1.705.236 1.801zm-1.256-1.34c-.229.176-.488.463-.384.672.063.127.18.156.416.163.28.011.487.043.577.227.137.272-.12.716-.434.969l-.156-.17c.146-.104.47-.416.361-.632-.068-.135-.293-.127-.433-.137-.254-.019-.454-.024-.558-.232-.125-.252.008-.662.449-1.02zm-2.395.788c.044-.015.873-.276.928-.295.043.147.247.727.27.79l.129.363c.015.043.25.693.272.744a27.43 27.43 0 00-.847.353l-.085-.21c.087-.03.572-.214.616-.232l-.244-.687a7.86 7.86 0 00-.52.216l-.084-.212c.06-.02.489-.158.544-.177l-.234-.66c-.066.022-.433.14-.65.236zm-.938.261c0 .078.169.904.262 1.353l.087.42c.326-.068.726-.164.798-.19l.05.24c-.118.001-.793.128-.825.133l-.247.051c-.055.012-.672.15-.791.197l-.05-.24c.04.004.57-.09.809-.138l-.097-.468a24.32 24.32 0 00-.303-1.294zm-1.624 1.116a55.609 55.609 0 00-.09-.864l.282-.025c.006.126.063.797.07.872l.03.307c.004.05.076.754.088.823l-.292.024c0-.05-.028-.486-.06-.83zm.058 1.714l-.156-.188.434-.28.082.096zm-.829-2.507c-.026.214-.189 1.822-.219 2.117h-.005a201.489 201.489 0 00-1.481-1.708c-.004.08-.093 1.43-.1 1.523l-.268-.028c.02-.17.138-1.34.187-2.061h.006c.073.08 1.452 1.644 1.5 1.72h.007c.004-.102.102-1.501.104-1.597z"/></svg>