<svg xmlns="http://www.w3.org/2000/svg" width="48" height="48"><path fill="#fff" d="M24.001 11.2h-.003zm-.002 0c3.476 0 3.91.015 5.276.077 1.362.063 2.293.278 3.109.595a6.256 6.256 0 012.267 1.476 6.283 6.283 0 011.477 2.267c.315.814.53 1.744.595 3.107.061 1.366.077 1.802.077 5.278 0 3.476-.016 3.912-.077 5.277-.064 1.362-.28 2.292-.595 3.107a6.284 6.284 0 01-1.477 2.267 6.263 6.263 0 01-2.266 1.477c-.815.317-1.746.533-3.108.595-1.366.062-1.8.077-5.277.077-3.476 0-3.912-.015-5.278-.077-1.362-.062-2.293-.278-3.107-.595a6.268 6.268 0 01-2.267-1.477 6.271 6.271 0 01-1.476-2.268c-.316-.813-.532-1.744-.595-3.106-.062-1.366-.077-1.8-.077-5.277 0-3.476.016-3.913.077-5.278.061-1.362.277-2.293.595-3.107a6.284 6.284 0 011.477-2.267 6.268 6.268 0 012.268-1.476c.813-.316 1.744-.532 3.106-.595 1.365-.062 1.802-.077 5.276-.077zM24 48c13.255 0 24-10.745 24-24S37.255 0 24 0 0 10.745 0 24s10.745 24 24 24z"/><path fill="#fff" d="M30.578 23.997a6.572 6.572 0 01-6.575 6.57 6.573 6.573 0 01-6.575-6.57 6.574 6.574 0 016.575-6.572 6.573 6.573 0 016.575 6.572zm1.795-6.836c0 .845-.69 1.531-1.54 1.531-.85 0-1.54-.686-1.54-1.531 0-.846.69-1.531 1.54-1.531.85 0 1.54.685 1.54 1.53zM22.855 13.5c-2.386.003-2.843.019-4.024.072-1.248.057-1.926.265-2.377.441a3.973 3.973 0 00-1.472.958 3.966 3.966 0 00-.958 1.472c-.175.451-.383 1.129-.44 2.377-.062 1.35-.074 1.752-.074 5.17 0 3.419.012 3.824.074 5.173.056 1.248.265 1.926.44 2.376.233.598.51 1.024.958 1.472.448.448.875.725 1.472.957.452.175 1.13.384 2.377.441 1.35.062 1.754.075 5.172.075 3.418 0 3.823-.013 5.173-.075 1.248-.057 1.926-.265 2.376-.44a3.958 3.958 0 001.471-.958c.448-.448.726-.873.958-1.47.175-.451.384-1.129.44-2.377.062-1.349.076-1.754.076-5.17s-.014-3.822-.075-5.171c-.057-1.248-.266-1.925-.44-2.376a3.972 3.972 0 00-.959-1.472 3.958 3.958 0 00-1.47-.957c-.452-.176-1.13-.384-2.377-.441-1.35-.061-1.755-.074-5.173-.074h-1.148z"/><path fill="#fff" d="M23.997 19.73a4.267 4.267 0 110 8.533 4.267 4.267 0 010-8.533z"/></svg>