<svg xmlns="http://www.w3.org/2000/svg" width="1099" height="380" viewBox="0 0 1099 380">
    <g fill="none" fill-rule="evenodd">
        <g fill="#FFF">
            <path d="M763 426l-14 26h20l23-26h123v182H0V426h763zm-259 33c-26.57 0-40.54 12.238-41 35 .46 13.309 4.635 21.843 14 28 .643.342 3.654 1.946 4 2 4.652 2.52 10.682 4.263 26 8 8.49 2.2 11.7 5.42 12 12-.3 7.27-5.117 10.973-15 11-12.438-.027-19.182-3.409-24-12l-22 14c3.533 6.024 6.745 9.406 12 13 8.073 5.101 20.277 8 33 8 14.737 0 26.139-3.22 33-9 6.949-5.976 10-14.188 10-27 0-10.874-2.909-18.96-8.622-24.005-.979-1.105-3.363-3.276-7.378-4.995-4.015-1.72-8.773-3.136-19-6-15.905-3.717-20.24-6.938-20-15-.24-6.43 4.095-10.134 12-10 8.796-.134 14.095 2.765 20 11l21-14c-8.117-13.559-20.642-20-40-20zm319 2h-28v115h27v-67l35 67h28V461h-27v67l-35-67zm-48 0h-28v115h28V461zm-393 0h-28l38 115h26l38-115h-28l-23 78-23-78zm253 0h-74v115h75v-23h-47v-23h39v-24h-39v-22h46v-23zm100 0h-87v23h29v92h29v-92h29v-23zM0 410V228h925l-14 26h20l23-26h145v182H0zm691-149c-17.529 0-27.49 3.358-35 12-7.43 7.027-10 16.3-10 34v26c0 16.42 2.25 25.374 8 32 7.583 10.003 18.347 14 37 14 16.529 0 26.49-3.358 34-12 7.43-7.027 10-16.3 10-34v-26c0-16.42-2.25-25.374-8-32-7.583-10.003-18.347-14-36-14zm-264 2h-73v114h29v-45h36v-23h-36v-23h44v-23zm89 0h-74v114h75v-23h-47v-23h39v-23h-39v-22h46v-23zm47 0h-28v114h27v-67l35 67h28V263h-27v67l-35-67zm219 0h-27v114h27v-61l18 35h18l18-35v61h27V263h-27l-27 57-27-57zm178 0h-74v114h75v-23h-47v-23h39v-23h-39v-22h46v-23zm47 0h-28v114h27v-67l35 67h28V263h-27v67l-35-67zm-317 21c12.606 0 16 5.416 16 25v22c0 19.584-3.394 25-16 25s-16-5.416-16-25v-22c0-19.584 3.394-25 16-25z" transform="translate(0 -228)"/>
        </g>
    </g>
</svg>
