<svg xmlns="http://www.w3.org/2000/svg" width="48" height="48" viewBox="0 0 48 48">
    <g fill="none" fill-rule="evenodd">
        <g fill="#FFF">
            <g>
                <path d="M24 0C10.745 0 0 10.745 0 24s10.745 24 24 24 24-10.745 24-24S37.255 0 24 0zM10 23.96C10 16.263 16.28 10 24 10s14 6.263 14 13.96c0 1.09-.091 1.974-.295 2.86l-.003.014c0 .003-.102.412-.158.59-.346 1.103-.972 2.022-1.811 2.657-.814.617-1.824.956-2.842.956-.126 0-.252-.005-.377-.015-1.446-.116-2.717-.875-3.497-2.085-1.341 1.345-3.12 2.085-5.017 2.085-3.905 0-7.082-3.168-7.082-7.062 0-3.893 3.177-7.061 7.082-7.061 3.904 0 7.081 3.168 7.081 7.061v2.277c.006 1.328.9 1.87 1.663 1.932.76.059 1.771-.383 2.123-1.823.174-.79.262-1.593.262-2.386 0-6.12-4.992-11.098-11.13-11.098-6.136 0-11.129 4.979-11.129 11.098 0 6.12 4.993 11.099 11.13 11.099 2.136 0 4.214-.609 6.008-1.76l.032-.02 1.886 2.186-.04.028C29.555 37.08 26.828 37.92 24 37.92c-7.72 0-14-6.263-14-13.96z" transform="translate(-352 -9564) translate(352 9564)"/>
                <path d="M28.21 23.96c0 2.316-1.888 4.2-4.21 4.2s-4.211-1.884-4.211-4.2c0-2.315 1.889-4.199 4.21-4.199 2.323 0 4.212 1.884 4.212 4.2z" transform="translate(-352 -9564) translate(352 9564)"/>
            </g>
        </g>
    </g>
</svg>
