<svg xmlns="http://www.w3.org/2000/svg" width="24" height="24" viewBox="0 0 24 24"><g><g><g><path fill="#121619" d="M22.452 12c0-5.802-4.708-10.452-10.452-10.452C6.198 1.548 1.548 6.256 1.548 12c0 5.802 4.708 10.452 10.452 10.452 5.802 0 10.452-4.708 10.452-10.452zM24 12c0 6.629-5.371 12-12 12S0 18.629 0 12 5.371 0 12 0s12 5.371 12 12zm-5.816-.295v.58c0 .32-.262.58-.58.58h-4.739v4.738c0 .32-.26.58-.58.58h-.58a.582.582 0 0 1-.58-.58v-4.738H6.387a.582.582 0 0 1-.58-.58v-.58c0-.32.26-.58.58-.58h4.738V6.387c0-.32.26-.58.58-.58h.58c.32 0 .58.26.58.58v4.738h4.738c.32 0 .58.26.58.58z"/></g></g></g></svg>