<?xml version="1.0" encoding="UTF-8"?> <svg xmlns="http://www.w3.org/2000/svg" width="48" height="48"><path fill="#fff" d="M36.585 36.22h-5.442v-8.743c0-2.196-.787-3.695-2.757-3.695-1.504 0-2.4 1.01-2.793 1.986-.144.35-.179.837-.179 1.325v9.127h-5.443s.072-14.808 0-16.342h5.443v2.315c.722-1.113 2.016-2.699 4.905-2.699 3.582 0 6.266 2.336 6.266 7.356zM14.241 17.647h-.035c-1.826 0-3.006-1.255-3.006-2.824C11.2 13.22 12.416 12 14.277 12c1.86 0 3.006 1.22 3.042 2.823 0 1.569-1.181 2.824-3.078 2.824zm2.72 18.573h-5.44V19.878h5.44zM24 48c13.255 0 24-10.745 24-24S37.255 0 24 0 0 10.745 0 24s10.745 24 24 24z"></path></svg> 