<?xml version="1.0" encoding="UTF-8"?>
<svg width="48px" height="48px" viewBox="0 0 48 48" version="1.1" xmlns="http://www.w3.org/2000/svg" xmlns:xlink="http://www.w3.org/1999/xlink">
    <title>3C79249A-E0B4-4281-B8C8-6D7D20186A6A</title>
    <g id="Design" stroke="none" stroke-width="1" fill="none" fill-rule="evenodd">
        <g id="fenomen2020" transform="translate(-352.000000, -9564.000000)" fill="#FFFFFF">
            <g id="mail" transform="translate(352.000000, 9564.000000)">
                <path d="M24,0 C10.7452,0 0,10.7452 0,24 C0,37.2548 10.7452,48 24,48 C37.2548,48 48,37.2548 48,24 C48,10.7452 37.2548,0 24,0 Z M10,23.9603 C10,16.2626 16.2802,10 23.9998,10 C31.7194,10 37.9997,16.2626 37.9997,23.9603 C37.9997,25.0508 37.9087,25.9336 37.7048,26.8197 L37.7018,26.8344 C37.7013,26.837 37.6001,27.2455 37.5442,27.4237 C37.1982,28.5272 36.5718,29.4463 35.7325,30.0815 C34.9186,30.6977 33.9094,31.0371 32.891,31.0371 C32.7652,31.0371 32.6385,31.032 32.5144,31.0221 C31.0682,30.9063 29.7966,30.1474 29.0168,28.9373 C27.6757,30.282 25.8964,31.0218 23.9998,31.0218 C20.0951,31.0218 16.9184,27.854 16.9184,23.9603 C16.9184,20.0666 20.0951,16.8989 23.9998,16.8989 C27.9045,16.8989 31.0812,20.0666 31.0812,23.9603 L31.0812,26.2366 C31.087,27.5648 31.9808,28.1077 32.7444,28.1691 C33.5041,28.2276 34.5152,27.7863 34.8674,26.3461 C35.0411,25.5562 35.1294,24.7533 35.1294,23.9603 C35.1294,17.8407 30.1367,12.8621 23.9998,12.8621 C17.8629,12.8621 12.8703,17.8407 12.8703,23.9603 C12.8703,30.0798 17.8629,35.0585 23.9998,35.0585 C26.136,35.0585 28.2136,34.4501 30.0079,33.2991 L30.0401,33.2784 L31.9261,35.465 L31.8856,35.4926 C29.5549,37.0811 26.828,37.9207 23.9998,37.9207 C16.2802,37.9207 10,31.6581 10,23.9603 Z" id="Shape"></path>
                <path d="M28.2109,23.9603 C28.2109,26.2758 26.3218,28.1596 23.9998,28.1596 C21.6777,28.1596 19.7887,26.2758 19.7887,23.9603 C19.7887,21.6449 21.6777,19.7612 23.9998,19.7612 C26.3218,19.7612 28.2109,21.6449 28.2109,23.9603 Z" id="Path"></path>
            </g>
        </g>
    </g>
</svg>